<?xml version="1.0" encoding="iso-8859-1"?>
<!-- Generator: Adobe Illustrator 19.0.0, SVG Export Plug-In . SVG Version: 6.00 Build 0)  -->
<svg version="1.1" id="Capa_1" xmlns="http://www.w3.org/2000/svg" xmlns:xlink="http://www.w3.org/1999/xlink" x="0px" y="0px"
	 viewBox="0 0 468.293 468.293" width="100%" height="100%" style="enable-background:new 0 0 468.293 468.293;" xml:space="preserve">
<path style="fill:#EBF0F3;" d="M390.244,18.732v430.829c0,10.365-8.367,18.732-18.732,18.732H96.78
	c-10.365,0-18.732-8.367-18.732-18.732V18.732C78.049,8.367,86.416,0,96.78,0h274.732c9.491,0,17.296,7.056,18.545,16.171
	C390.181,17.046,390.244,17.857,390.244,18.732z"/>
<path style="fill:#E1E6E9;" d="M390.244,18.732v430.829c0,10.365-8.367,18.732-18.732,18.732H96.78
	c-10.365,0-18.732-8.367-18.732-18.732v-13.487L390.057,16.171C390.181,17.046,390.244,17.857,390.244,18.732z"/>
<rect x="100.951" y="48.178" style="fill:#64798A;" width="266.402" height="354.897"/>
<polygon style="fill:#3A556A;" points="367.353,403.073 100.95,403.073 367.353,48.178 "/>
<g>
	<circle style="fill:#D5D6DB;" cx="176.846" cy="24.083" r="9.366"/>
	<path style="fill:#D5D6DB;" d="M294.579,30.328h-87.415c-3.448,0-6.244-2.795-6.244-6.244v0c0-3.448,2.795-6.244,6.244-6.244
		h87.415c3.448,0,6.244,2.795,6.244,6.244v0C300.823,27.532,298.027,30.328,294.579,30.328z"/>
</g>
<circle style="fill:#64798A;" cx="234.146" cy="435.699" r="24.976"/>
<circle style="fill:#E1E6E9;" cx="234.146" cy="435.699" r="17.633"/>
<g>
	<path style="fill:#F6C358;" d="M203.778,160.099c-2.338,0-4.594-1.272-5.74-3.495l-12.55-24.314
		c-1.636-3.171-0.393-7.062,2.774-8.698c3.164-1.65,7.058-0.4,8.698,2.774l12.55,24.314c1.636,3.171,0.393,7.062-2.774,8.698
		C205.789,159.869,204.776,160.099,203.778,160.099z"/>
	<path style="fill:#F6C358;" d="M264.527,160.099c-0.998,0-2.011-0.231-2.958-0.721c-3.167-1.636-4.41-5.527-2.774-8.698
		l12.55-24.314c1.636-3.174,5.52-4.425,8.698-2.774c3.167,1.636,4.41,5.527,2.774,8.698l-12.55,24.314
		C269.12,158.827,266.865,160.099,264.527,160.099z"/>
</g>
<path style="fill:#FCD462;" d="M234.152,138.098c-32.603,0-59.033,21.302-59.033,47.579h118.067
	C293.185,159.4,266.755,138.098,234.152,138.098z"/>
<g>
	<circle style="fill:#EBF0F3;" cx="212.63" cy="166.088" r="7.38"/>
	<circle style="fill:#EBF0F3;" cx="255.688" cy="166.088" r="7.38"/>
</g>
<path style="fill:#F6C358;" d="M175.118,184.054v89.19c0,6.113,4.956,11.069,11.069,11.069h6.51v34.481
	c0,5.298,4.295,9.593,9.593,9.593c5.298,0,9.593-4.295,9.593-9.593v-34.481h44.537v34.481c0,5.298,4.295,9.593,9.593,9.593
	s9.593-4.295,9.593-9.593v-34.481h6.51c6.113,0,11.069-4.956,11.069-11.069v-89.19H175.118z"/>
<g>
	<path style="fill:#FCD462;" d="M315.322,244.688h-2.271c-3.448,0-6.244-2.795-6.244-6.244v-48.146c0-3.448,2.796-6.244,6.244-6.244
		h2.271c3.448,0,6.244,2.795,6.244,6.244v48.146C321.566,241.893,318.77,244.688,315.322,244.688z"/>
	<path style="fill:#FCD462;" d="M155.251,244.688h-2.271c-3.448,0-6.244-2.795-6.244-6.244v-48.146c0-3.448,2.795-6.244,6.244-6.244
		h2.271c3.448,0,6.244,2.795,6.244,6.244v48.146C161.495,241.893,158.699,244.688,155.251,244.688z"/>
</g>
<g>
</g>
<g>
</g>
<g>
</g>
<g>
</g>
<g>
</g>
<g>
</g>
<g>
</g>
<g>
</g>
<g>
</g>
<g>
</g>
<g>
</g>
<g>
</g>
<g>
</g>
<g>
</g>
<g>
</g>
</svg>
