<?xml version="1.0" encoding="iso-8859-1"?>
<!-- Generator: Adobe Illustrator 19.0.0, SVG Export Plug-In . SVG Version: 6.00 Build 0)  -->
<svg version="1.1" id="Capa_1" xmlns="http://www.w3.org/2000/svg" xmlns:xlink="http://www.w3.org/1999/xlink" x="0px" y="0px"
	 viewBox="0 0 512.001 512.001" style="enable-background:new 0 0 512.001 512.001;" xml:space="preserve">
<rect x="351.631" y="281.971" style="fill:#FC8354;" width="105.43" height="67.18"/>
<rect x="351.631" y="315.561" style="fill:#FD6E2E;" width="105.43" height="33.592"/>
<path style="fill:#FEC93E;" d="M494.308,393.899l-57.526-15.777c-3.501-0.96-5.928-4.142-5.928-7.773V260.778
	c0-3.63,2.427-6.812,5.928-7.773l57.526-15.777c5.13-1.407,10.191,2.454,10.191,7.773v141.125
	C504.499,391.446,499.438,395.306,494.308,393.899z"/>
<path style="fill:#1E608B;" d="M372.943,426.157H56.712c-6.305,0-11.416-5.111-11.416-11.416V216.387
	c0-6.305,5.111-11.416,11.416-11.416h316.231c6.305,0,11.416,5.111,11.416,11.416v198.354
	C384.359,421.046,379.248,426.157,372.943,426.157z"/>
<path style="fill:#135370;" d="M384.307,215.355c-0.522-5.821-5.407-10.385-11.364-10.385h-52.405
	c6.305,0,11.416,5.111,11.416,11.416v179.558c0,8.503-6.893,15.396-15.396,15.396H56.524c-5.618,0-10.278-4.061-11.228-9.406v12.807
	c0,6.305,5.111,11.416,11.416,11.416h316.231c6.305,0,11.416-5.111,11.416-11.416V216.387
	C384.359,216.038,384.34,215.695,384.307,215.355z"/>
<circle style="fill:#424242;" cx="108.691" cy="187.041" r="101.24"/>
<path style="fill:#3A3A3A;" d="M180.286,115.447L180.286,115.447l-143.18,143.18l0,0c39.538,39.538,103.642,39.538,143.18,0
	S219.824,154.985,180.286,115.447z"/>
<path style="fill:#FC8354;" d="M335.051,392.518h-67.332c-1.862,0-3.372-1.51-3.372-3.372v-67.332c0-1.862,1.51-3.372,3.372-3.372
	h67.332c1.862,0,3.372,1.51,3.372,3.372v67.332C338.423,391.008,336.914,392.518,335.051,392.518z"/>
<path style="fill:#FEC93E;" d="M108.696,220.929c-18.688,0-33.892-15.204-33.892-33.891c0-18.688,15.204-33.892,33.892-33.892
	s33.891,15.204,33.891,33.892C142.587,205.725,127.383,220.929,108.696,220.929z"/>
<circle style="fill:#424242;" cx="314.411" cy="187.041" r="77.72"/>
<path style="fill:#3A3A3A;" d="M369.365,241.996c30.353-30.353,30.353-79.564,0-109.917L259.449,241.996
	C289.801,272.348,339.013,272.348,369.365,241.996z"/>
<path style="fill:#FEC93E;" d="M314.407,207.791c-11.444,0-20.754-9.31-20.754-20.753c0-11.444,9.31-20.754,20.754-20.754
	c11.443,0,20.753,9.31,20.753,20.754C335.161,198.481,325.851,207.791,314.407,207.791z"/>
<path style="fill:#FD6E2E;" d="M335.051,318.442h-33.666v74.076h33.666c1.862,0,3.372-1.51,3.372-3.372v-67.332
	C338.423,319.952,336.914,318.442,335.051,318.442z"/>
<g>
	<path style="fill:#EFB635;" d="M430.854,315.564v54.786c0,3.63,2.427,6.813,5.928,7.773l57.526,15.777
		c5.13,1.407,10.191-2.454,10.191-7.773v-70.563H430.854z"/>
	<path style="fill:#EFB635;" d="M108.696,153.146L108.696,153.146v67.783l0,0c18.688,0,33.891-15.204,33.891-33.891
		C142.587,168.349,127.383,153.146,108.696,153.146z"/>
	<path style="fill:#EFB635;" d="M314.407,166.284L314.407,166.284v41.507l0,0c11.443,0,20.753-9.31,20.753-20.753
		C335.16,175.594,325.851,166.284,314.407,166.284z"/>
</g>
<path d="M148.362,154.873c1.919,0,3.84-0.733,5.304-2.197l15.293-15.292c2.93-2.93,2.93-7.679,0-10.609s-7.68-2.931-10.609,0
	l-15.292,15.292c-2.931,2.93-2.931,7.679-0.001,10.609C144.522,154.141,146.441,154.873,148.362,154.873z"/>
<path d="M63.724,221.399l-15.292,15.292c-2.93,2.93-2.93,7.68,0,10.609c1.465,1.465,3.386,2.197,5.305,2.197s3.84-0.733,5.305-2.197
	l15.291-15.292c2.93-2.93,2.93-7.68,0-10.609C71.404,218.468,66.654,218.469,63.724,221.399z"/>
<path d="M153.666,221.399c-2.929-2.931-7.679-2.93-10.609,0s-2.93,7.68,0.001,10.609L158.35,247.3
	c1.464,1.465,3.385,2.197,5.304,2.197s3.84-0.733,5.305-2.197c2.93-2.93,2.93-7.68,0-10.609L153.666,221.399z"/>
<path d="M63.724,152.676c1.465,1.465,3.385,2.197,5.305,2.197c1.919,0,3.84-0.733,5.305-2.197c2.93-2.93,2.93-7.679,0-10.609
	l-15.291-15.292c-2.93-2.93-7.679-2.931-10.61,0c-2.93,2.93-2.93,7.679,0,10.609L63.724,152.676z"/>
<path d="M346.41,162.537c1.919,0,3.84-0.733,5.305-2.197l8.255-8.256c2.93-2.93,2.93-7.68-0.001-10.61
	c-2.929-2.93-7.679-2.929-10.609,0l-8.255,8.256c-2.93,2.93-2.93,7.68,0.001,10.609C342.57,161.805,344.49,162.537,346.41,162.537z"
	/>
<path d="M274.149,234.798c1.919,0,3.84-0.733,5.305-2.197l8.255-8.256c2.93-2.93,2.93-7.68-0.001-10.609
	c-2.929-2.931-7.679-2.93-10.609,0l-8.255,8.256c-2.93,2.93-2.93,7.68,0.001,10.61C270.309,234.066,272.229,234.798,274.149,234.798
	z"/>
<path d="M351.715,213.735c-2.93-2.93-7.68-2.931-10.609,0c-2.931,2.93-2.931,7.679-0.001,10.609l8.255,8.256
	c1.465,1.465,3.385,2.197,5.305,2.197c1.919,0,3.84-0.733,5.304-2.197c2.93-2.93,2.93-7.68,0.001-10.61L351.715,213.735z"/>
<path d="M277.099,160.339c1.465,1.465,3.385,2.197,5.305,2.197c1.919,0,3.84-0.733,5.304-2.197c2.931-2.93,2.931-7.679,0.001-10.609
	l-8.255-8.256c-2.931-2.93-7.681-2.93-10.609,0c-2.931,2.93-2.931,7.68-0.001,10.61L277.099,160.339z"/>
<path d="M209.939,310.94H85.992c-4.144,0-7.502,3.359-7.502,7.502s3.358,7.502,7.502,7.502H209.94c4.144,0,7.502-3.359,7.502-7.502
	S214.083,310.94,209.939,310.94z"/>
<path d="M85.992,385.016c-4.144,0-7.502,3.359-7.502,7.502s3.358,7.502,7.502,7.502h14.634c4.144,0,7.502-3.359,7.502-7.502
	s-3.358-7.502-7.502-7.502H85.992z"/>
<path d="M209.939,385.016h-74.253c-4.144,0-7.502,3.359-7.502,7.502s3.358,7.502,7.502,7.502h74.253
	c4.144,0,7.502-3.359,7.502-7.502S214.083,385.016,209.939,385.016z"/>
<path d="M209.939,347.978H85.992c-4.144,0-7.502,3.359-7.502,7.502s3.358,7.502,7.502,7.502H209.94c4.144,0,7.502-3.359,7.502-7.502
	S214.083,347.978,209.939,347.978z"/>
<path d="M185.591,263.932c14.696-14.697,24.294-32.589,28.802-51.46h18.706c3.965,12.749,10.966,24.749,21.044,34.828
	c16.615,16.614,38.439,24.922,60.264,24.922s43.649-8.307,60.264-24.922c33.228-33.229,33.228-87.297,0-120.526
	c-33.23-33.229-87.298-33.229-120.528,0c-19.267,19.268-27.338,45.539-24.262,70.694h-12.988
	c2.982-31.212-7.453-63.476-31.303-87.326c-42.4-42.399-111.39-42.399-153.791,0c-42.399,42.4-42.399,111.39,0,153.79
	c21.2,21.2,49.048,31.8,76.895,31.8S164.391,285.132,185.591,263.932z M264.753,137.384c13.691-13.691,31.669-20.534,49.653-20.534
	c17.98,0,35.966,6.846,49.653,20.534c27.379,27.379,27.379,71.928,0,99.307c-27.379,27.378-71.928,27.38-99.307,0
	C237.375,209.312,237.375,164.763,264.753,137.384z M42.41,120.752c18.275-18.275,42.279-27.412,66.285-27.412
	s48.01,9.137,66.285,27.412c36.55,36.55,36.55,96.021,0,132.571c-36.549,36.55-96.021,36.55-132.57,0S5.861,157.302,42.41,120.752z"
	/>
<path d="M150.089,187.037c0-22.825-18.569-41.394-41.393-41.394s-41.393,18.569-41.393,41.394c0,22.824,18.569,41.393,41.393,41.393
	S150.089,209.862,150.089,187.037z M82.306,187.037c0-14.551,11.838-26.39,26.389-26.39s26.389,11.838,26.389,26.39
	c0,14.551-11.838,26.389-26.389,26.389S82.306,201.588,82.306,187.037z"/>
<path d="M314.407,215.293c15.581,0,28.256-12.675,28.256-28.255s-12.675-28.255-28.256-28.255s-28.256,12.675-28.256,28.255
	S298.826,215.293,314.407,215.293z M314.407,173.786c7.307,0,13.252,5.945,13.252,13.251c0,7.307-5.945,13.251-13.252,13.251
	s-13.252-5.945-13.252-13.251C301.155,179.731,307.1,173.786,314.407,173.786z"/>
<path d="M267.719,310.94c-5.996,0-10.874,4.878-10.874,10.875v67.332c0,5.996,4.878,10.874,10.874,10.874h67.332
	c5.996,0,10.874-4.878,10.874-10.874v-67.332c0-5.996-4.878-10.875-10.874-10.875H267.719z M330.921,385.016h-59.072v-59.072h59.072
	V385.016z"/>
<path d="M505.877,232.628c-3.893-2.969-8.832-3.927-13.554-2.634l-57.526,15.777c-6.739,1.848-11.446,8.02-11.446,15.008v13.692
	h-31.49v-10.992c0-4.143-3.358-7.502-7.502-7.502s-7.502,3.359-7.502,7.502v18.494v67.184v65.585c0,2.158-1.755,3.914-3.913,3.914
	H56.712c-2.158,0-3.914-1.756-3.914-3.914V298.574c0-4.143-3.358-7.502-7.502-7.502s-7.502,3.359-7.502,7.502v116.167
	c0,10.431,8.487,18.918,18.918,18.918h316.232c10.431,0,18.917-8.487,18.917-18.918v-58.083h31.491v13.692
	c0,6.988,4.706,13.159,11.446,15.008l57.526,15.777c1.377,0.378,2.773,0.564,4.156,0.564c3.357,0,6.641-1.096,9.397-3.198
	c3.892-2.969,6.124-7.479,6.124-12.374V245.001C512.001,240.106,509.769,235.596,505.877,232.628z M423.352,341.654h-31.491v-52.18
	h31.491L423.352,341.654L423.352,341.654z M496.997,386.127c0,0.083,0,0.276-0.22,0.443c-0.219,0.167-0.405,0.115-0.485,0.094
	l-57.526-15.777c-0.241-0.066-0.409-0.287-0.409-0.538v-21.194v-67.184v-21.194c0-0.251,0.168-0.472,0.409-0.538l57.526-15.777
	c0.08-0.021,0.267-0.073,0.485,0.094c0.22,0.168,0.22,0.361,0.22,0.443V386.127z"/>
<g>
</g>
<g>
</g>
<g>
</g>
<g>
</g>
<g>
</g>
<g>
</g>
<g>
</g>
<g>
</g>
<g>
</g>
<g>
</g>
<g>
</g>
<g>
</g>
<g>
</g>
<g>
</g>
<g>
</g>
</svg>
