<?xml version="1.0" encoding="iso-8859-1"?>
<!-- Generator: Adobe Illustrator 15.1.0, SVG Export Plug-In . SVG Version: 6.00 Build 0)  -->
<!DOCTYPE svg PUBLIC "-//W3C//DTD SVG 1.1//EN" "http://www.w3.org/Graphics/SVG/1.1/DTD/svg11.dtd">
<svg xmlns="http://www.w3.org/2000/svg" xmlns:xlink="http://www.w3.org/1999/xlink" version="1.1" id="Layer_1" x="0px" y="0px" width="100%" height="100%" viewBox="0 0 128 128" style="enable-background:new 0 0 128 128;" xml:space="preserve">
<g>
	<circle style="fill:#F2CF61;" cx="64" cy="64" r="64"/>
	<path style="fill:#E6C45C;" d="M119.383,96.059L89,22v-1c0-0.552-0.447-1-1-1s-1,0.448-1,1v0.512v0.512V24H43v-0.439v-0.512v-0.512   c0-0.552-0.448-1-1-1v-0.024V21c0-0.552-0.448-1-1-1s-1,0.448-1,1v0.512v0.512v2.255c-0.594,0.348-1,0.986-1,1.721v0.512v0.512V40   v0.512v0.512c0,0.734,1,1.373,1,1.721v0.328v0.512v4.421c-0.673,0-1.33,0.334-1.707,0.951l-11,18   c-0.37,0.605-0.375,1.328-0.085,1.922l4.383,11.084l-0.48,1.38c-0.153,0.439-0.135,0.894,0.004,1.302   c0.014,0.166,0.057,0.325,0.111,0.481l8.754,21.576c0.015,0.159,0.02,0.315,0.02,0.466c0,0.003,0,0.006,0,0.01l0.019,0.033   c-0.988,0.494-1.345,1.695-0.851,2.684l7.157,17.613C51.941,127.119,57.866,128,64,128C87.66,128,108.307,115.15,119.383,96.059z"/>
	<g>
		<path style="fill:#CC923D;" d="M41,60c-0.552,0-1-0.447-1-1V21c0-0.552,0.448-1,1-1s1,0.448,1,1v38C42,59.553,41.552,60,41,60z"/>
		<path style="fill:#CC923D;" d="M88,60c-0.553,0-1-0.447-1-1V21c0-0.552,0.447-1,1-1s1,0.448,1,1v38C89,59.553,88.553,60,88,60z"/>
	</g>
	<g>
		<path style="fill:#BF8939;" d="M85.998,95c-0.327,0-0.659-0.08-0.966-0.25l-47-26c-0.966-0.534-1.316-1.752-0.782-2.718    c0.535-0.968,1.75-1.317,2.718-0.782l47,26c0.968,0.534,1.317,1.752,0.782,2.718C87.385,94.628,86.702,95,85.998,95z"/>
		<path style="fill:#BF8939;" d="M43.002,95c-0.704,0-1.387-0.372-1.752-1.032c-0.535-0.966-0.185-2.184,0.782-2.718l47-26    c0.968-0.535,2.184-0.186,2.718,0.782c0.535,0.966,0.186,2.184-0.782,2.718l-47,26C43.661,94.92,43.329,95,43.002,95z"/>
		<path style="fill:#CC923D;" d="M87.998,109c-0.3,0-0.605-0.066-0.893-0.211l-52-26c-0.988-0.494-1.388-1.695-0.895-2.684    c0.494-0.989,1.695-1.39,2.684-0.896l52,26c0.987,0.494,1.389,1.695,0.895,2.685C89.438,108.596,88.732,109,87.998,109z"/>
		<path style="fill:#CC923D;" d="M41.001,109c-0.733,0-1.44-0.404-1.791-1.105c-0.494-0.987-0.093-2.188,0.895-2.684l52-26    c0.99-0.495,2.188-0.093,2.684,0.895c0.494,0.988,0.094,2.189-0.895,2.685l-52,26C41.607,108.934,41.302,109,41.001,109z"/>
	</g>
	<path style="fill:#242424;" d="M90,40c0,1.1-0.9,2-2,2H41c-1.1,0-2-0.9-2-2V26c0-1.1,0.9-2,2-2h47c1.1,0,2,0.9,2,2V40z"/>
	<polygon style="fill:#242424;" points="94,81 34,81 39,59 90,59  "/>
	<g>
		<path style="fill:#CC923D;" d="M33,84.001c-0.218,0-0.439-0.036-0.657-0.112c-1.043-0.361-1.595-1.503-1.232-2.546l8-23    c0.363-1.042,1.5-1.597,2.546-1.231c1.043,0.362,1.595,1.503,1.232,2.546l-8,23C34.602,83.482,33.828,84.001,33,84.001z"/>
		<path style="fill:#CC923D;" d="M33,81c-0.552,0-1-0.447-1-1V64c0-0.553,0.448-1,1-1s1,0.447,1,1v16C34,80.553,33.552,81,33,81z"/>
		<path style="fill:#CC923D;" d="M28.998,70c-0.355,0-0.715-0.095-1.041-0.293c-0.942-0.576-1.24-1.809-0.664-2.75l11-18    c0.575-0.942,1.806-1.24,2.75-0.664c0.942,0.576,1.24,1.807,0.664,2.75l-11,18C30.33,69.66,29.672,70,28.998,70z"/>
	</g>
	<g>
		<path style="fill:#CC923D;" d="M96,84.001c-0.828,0-1.602-0.519-1.889-1.344l-8-23c-0.363-1.043,0.188-2.183,1.231-2.546    c1.044-0.366,2.185,0.189,2.546,1.231l8,23c0.363,1.043-0.188,2.184-1.23,2.547C96.439,83.965,96.218,84.001,96,84.001z"/>
		<path style="fill:#CC923D;" d="M96,81c-0.553,0-1-0.447-1-1V64c0-0.553,0.447-1,1-1s1,0.447,1,1v16C97,80.553,96.553,81,96,81z"/>
		<path style="fill:#CC923D;" d="M100.002,70c-0.674,0-1.331-0.34-1.709-0.957l-11-18c-0.575-0.942-0.277-2.173,0.664-2.75    c0.941-0.575,2.172-0.278,2.75,0.664l11,18c0.575,0.941,0.277,2.174-0.664,2.75C100.718,69.905,100.357,70,100.002,70z"/>
	</g>
</g>
</svg>
